<svg xmlns="http://www.w3.org/2000/svg" version="1.1" xmlns:xlink="http://www.w3.org/1999/xlink" xmlns:svgjs="http://svgjs.dev/svgjs" width="1000" height="623" viewBox="0 0 1000 623"><g transform="matrix(1,0,0,1,-0.6060606060606233,0.25474898785421374)"><svg viewBox="0 0 396 247" data-background-color="#ffffff" preserveAspectRatio="xMidYMid meet" height="623" width="1000" xmlns="http://www.w3.org/2000/svg" xmlns:xlink="http://www.w3.org/1999/xlink"><g id="tight-bounds" transform="matrix(1,0,0,1,0.2400000000000091,-0.09999999999999432)"><svg viewBox="0 0 395.52 247.2" height="247.2" width="395.52"><g><svg></svg></g><g><svg viewBox="0 0 395.52 247.2" height="247.2" width="395.52"><g><g><path xmlns="http://www.w3.org/2000/svg" d="M317.901 198.339c-2.212 7.061-5.154 13.298-8.826 18.712-3.719 5.366-8.049 9.956-12.992 13.769-4.943 3.813-10.05 6.92-15.322 9.32-5.272 2.401-10.638 4.189-16.099 5.366-5.46 1.13-10.615 1.695-15.463 1.695h-172.851v-44.837h172.851c8.661 0 15.369-2.518 20.123-7.555 4.39-4.695 6.754-10.834 7.09-18.419l44.86 0c-0.152 8.086-1.276 15.402-3.371 21.949zM81.432 39.046c4.754-9.273 10.733-16.805 17.935-22.595 7.155-5.79 14.922-9.979 23.3-12.568 8.426-2.589 16.24-3.883 23.443-3.884h152.585v44.837h-152.585c-8.473 0-15.11 2.589-19.912 7.767-4.322 4.707-6.68 10.776-7.073 18.207l-44.872 0c0.258-12.43 2.651-23.018 7.179-31.764z" fill="#61777f" fill-rule="nonzero" stroke="none" stroke-width="1" stroke-linecap="butt" stroke-linejoin="miter" stroke-miterlimit="10" stroke-dasharray="" stroke-dashoffset="0" font-family="none" font-weight="none" font-size="none" text-anchor="none" style="mix-blend-mode: normal" data-fill-palette-color="tertiary"></path></g></g><g transform="matrix(1,0,0,1,0,87.74094722598105)"><svg viewBox="0 0 395.52 71.71810554803788" height="71.71810554803788" width="395.52"><g><svg viewBox="0 0 395.52 71.71810554803788" height="71.71810554803788" width="395.52"><g><svg viewBox="0 0 395.52 71.71810554803788" height="71.71810554803788" width="395.52"><g id="textblocktransform"><svg viewBox="0 0 395.52 71.71810554803788" height="71.71810554803788" width="395.52" id="textblock"><g><svg viewBox="0 0 395.52 71.71810554803788" height="71.71810554803788" width="395.52"><g transform="matrix(1,0,0,1,0,0)"><svg width="395.52" viewBox="2.3399999141693115 -35.5 198.4600067138672 35.9900016784668" height="71.71810554803788" data-palette-color="#61777f"><path d="M37.33-10.3L37.33-10.3Q37.33-8.42 36.85-6.92 36.38-5.42 35.6-4.27 34.81-3.13 33.76-2.32 32.71-1.51 31.59-1 30.47-0.49 29.31-0.24 28.15 0 27.12 0L27.12 0 2.64 0 2.64-6.35 27.12-6.35Q28.96-6.35 29.97-7.42 30.98-8.5 30.98-10.3L30.98-10.3Q30.98-11.18 30.71-11.91 30.44-12.65 29.94-13.18 29.44-13.72 28.72-14.01 28-14.31 27.12-14.31L27.12-14.31 12.52-14.31Q10.99-14.31 9.2-14.86 7.42-15.41 5.9-16.63 4.37-17.85 3.36-19.82 2.34-21.8 2.34-24.66L2.34-24.66Q2.34-27.51 3.36-29.48 4.37-31.45 5.9-32.68 7.42-33.91 9.2-34.46 10.99-35.01 12.52-35.01L12.52-35.01 34.13-35.01 34.13-28.66 12.52-28.66Q10.72-28.66 9.7-27.56 8.69-26.46 8.69-24.66L8.69-24.66Q8.69-22.83 9.7-21.77 10.72-20.7 12.52-20.7L12.52-20.7 27.12-20.7 27.17-20.7Q28.2-20.68 29.35-20.42 30.49-20.17 31.63-19.63 32.76-19.09 33.79-18.27 34.81-17.46 35.61-16.31 36.4-15.16 36.87-13.67 37.33-12.18 37.33-10.3ZM49-35.01L49-20.7 71.29-20.7 71.29-35.01 77.63-35.01 77.63 0 71.29 0 71.29-14.31 49-14.31 49 0 42.65 0 42.65-35.01 49-35.01ZM121.8-20.85L121.8-14.16Q121.8-10.96 120.7-8.28 119.6-5.59 117.65-3.64 115.69-1.68 113.02-0.6 110.35 0.49 107.2 0.49L107.2 0.49 98.6 0.49Q95.45 0.49 92.77-0.6 90.08-1.68 88.13-3.64 86.18-5.59 85.07-8.28 83.95-10.96 83.95-14.16L83.95-14.16 83.95-20.85Q83.95-24.02 85.07-26.72 86.18-29.42 88.13-31.36 90.08-33.3 92.77-34.4 95.45-35.5 98.6-35.5L98.6-35.5 107.2-35.5Q110.35-35.5 113.02-34.4 115.69-33.3 117.65-31.36 119.6-29.42 120.7-26.72 121.8-24.02 121.8-20.85L121.8-20.85ZM115.45-14.16L115.45-20.85Q115.45-22.73 114.85-24.26 114.25-25.78 113.17-26.87 112.08-27.95 110.55-28.55 109.03-29.15 107.2-29.15L107.2-29.15 98.6-29.15Q96.75-29.15 95.22-28.55 93.7-27.95 92.6-26.87 91.5-25.78 90.9-24.26 90.3-22.73 90.3-20.85L90.3-20.85 90.3-14.16Q90.3-12.28 90.9-10.75 91.5-9.23 92.6-8.14 93.7-7.06 95.22-6.46 96.75-5.86 98.6-5.86L98.6-5.86 107.15-5.86Q109-5.86 110.53-6.46 112.06-7.06 113.15-8.14 114.25-9.23 114.85-10.75 115.45-12.28 115.45-14.16L115.45-14.16ZM163.05-27.29L163.05-23.24Q163.05-21.07 162.52-19.36 161.98-17.65 161.06-16.35 160.15-15.04 158.95-14.11 157.76-13.18 156.45-12.59 155.14-11.99 153.81-11.72 152.48-11.45 151.31-11.45L151.31-11.45 164.57 0 154.75 0 141.52-11.45 136.96-11.45 136.96-17.8 151.31-17.8Q152.51-17.9 153.5-18.3 154.48-18.7 155.2-19.38 155.93-20.07 156.32-21.03 156.71-22 156.71-23.24L156.71-23.24 156.71-27.25Q156.71-27.78 156.57-28.06 156.44-28.34 156.23-28.48 156.02-28.61 155.79-28.64 155.56-28.66 155.36-28.66L155.36-28.66 134.42-28.66 134.42 0 128.07 0 128.07-31.81Q128.07-32.47 128.31-33.06 128.56-33.64 128.98-34.08 129.41-34.52 130-34.77 130.58-35.01 131.27-35.01L131.27-35.01 155.36-35.01Q157.49-35.01 158.95-34.24 160.42-33.47 161.33-32.31 162.25-31.15 162.65-29.81 163.05-28.47 163.05-27.29L163.05-27.29ZM200.8-35.01L200.8-28.66 186.81-28.66 186.81 0 180.46 0 180.46-28.66 166.45-28.66 166.45-35.01 200.8-35.01Z" opacity="1" transform="matrix(1,0,0,1,0,0)" fill="#61777f" class="undefined-text-0" data-fill-palette-color="primary" id="text-0"></path></svg></g></svg></g></svg></g></svg></g></svg></g></svg></g></svg></g><defs></defs></svg><rect width="395.52" height="247.2" fill="none" stroke="none" visibility="hidden"></rect></g></svg></g></svg>